<svg width="105" height="30" viewBox="0 0 105 30" fill="none" xmlns="http://www.w3.org/2000/svg">
<path fill-rule="evenodd" clip-rule="evenodd" d="M97.7347 16.9587C99.0505 16.9587 100.035 17.4363 100.39 18.261C100.56 18.658 100.89 18.7343 101.342 18.7343H103.152C103.453 18.7343 103.793 18.477 103.793 18.0856C103.793 15.9815 101.286 14.1033 97.7333 14.1033C94.0582 14.1033 91.6454 15.8546 91.6454 18.6423C91.6454 20.7764 93.3297 22.0459 95.4025 22.5876C96.3477 22.8356 97.9614 23.2334 98.7462 23.4394C99.593 23.6618 100.35 23.9198 100.35 24.6461C100.35 25.7901 99.1418 26.18 97.826 26.18C96.5772 26.18 95.3341 25.6219 94.9777 24.7324C94.7703 24.2156 94.4096 24.1408 93.8615 24.1408H92.0211C91.6996 24.1408 91.3304 24.4166 91.3304 24.8357V25.0724C91.3304 27.1088 94.0618 29.2407 97.8288 29.2407C100.5 29.2407 104.223 28.1309 104.223 24.5478C104.223 22.4721 102.835 21.0352 100.576 20.4621C99.692 20.2383 97.5687 19.698 97.1068 19.5782C96.2828 19.3651 95.5158 19.0964 95.5158 18.3907C95.5158 17.3222 96.5031 16.9587 97.7347 16.9587ZM30.7416 5.36312C30.9025 5.36312 31.0568 5.29922 31.1705 5.18546C31.2843 5.07171 31.3482 4.91742 31.3482 4.75655C31.3482 4.59567 31.2843 4.44139 31.1705 4.32763C31.0568 4.21387 30.9025 4.14997 30.7416 4.14997C30.5808 4.14997 30.4265 4.21387 30.3127 4.32763C30.199 4.44139 30.1351 4.59567 30.1351 4.75655C30.1351 4.91742 30.199 5.07171 30.3127 5.18546C30.4265 5.29922 30.5808 5.36312 30.7416 5.36312ZM22.5959 4.28896C22.7313 4.28896 22.8611 4.23519 22.9568 4.13948C23.0525 4.04377 23.1063 3.91396 23.1063 3.7786C23.1063 3.64325 23.0525 3.51344 22.9568 3.41773C22.8611 3.32202 22.7313 3.26825 22.5959 3.26825C22.4606 3.26825 22.3308 3.32202 22.2351 3.41773C22.1394 3.51344 22.0856 3.64325 22.0856 3.7786C22.0856 3.91396 22.1394 4.04377 22.2351 4.13948C22.3308 4.23519 22.4606 4.28896 22.5959 4.28896ZM16.4895 16.7684L16.2408 16.5018C16.9336 15.8582 17.667 14.8318 17.7861 14.2295C17.8966 13.6692 18.702 13.7583 18.5488 14.3678C18.3542 15.1468 17.4005 16.0877 16.4895 16.7684ZM11.3211 4.50137C10.046 5.05306 9.85921 6.36031 10.7538 7.14509C11.8322 8.09024 13.6106 7.26698 13.4395 5.82002C14.8858 5.89415 15.8188 4.40015 15.5886 3.35093C16.2322 2.79995 16.2964 1.62243 15.5244 1.15983C14.6969 0.664443 13.9178 0.85404 13.4217 1.80989C12.0966 1.71366 10.8272 2.75575 11.3211 4.50137L10.7074 4.23336C9.89841 2.54121 11.3154 0.812701 13.0532 1.21115C13.1791 0.93854 13.3624 0.69633 13.5905 0.501082C13.8186 0.305834 14.0862 0.162151 14.375 0.0798553C14.6638 -0.00244076 14.967 -0.0214068 15.2637 0.0242504C15.5605 0.0699077 15.8439 0.17911 16.0946 0.344398C17.2101 1.02012 17.4461 2.7636 16.26 3.60896C16.8195 5.23625 15.704 6.56559 14.0069 6.41377C13.808 8.50651 11.8336 8.77666 10.5584 7.78304C9.83854 7.22207 9.54416 6.44442 9.40517 5.8578C9.25904 5.23696 9.25904 4.68099 8.64605 4.04162C8.18488 3.55907 7.35876 3.57546 7.35876 3.57546C7.35876 2.05509 5.93676 0.66373 4.1712 1.33731C3.54537 0.798447 2.772 0.744985 2.21817 1.41144C1.89599 1.79848 1.71851 2.81563 2.71141 3.28179C2.66009 4.66745 3.71644 5.55201 5.26104 5.42942C5.32163 6.16572 6.13777 6.85 6.86124 6.94765L6.85483 7.31759C6.08288 7.24346 5.66519 7.51289 5.15056 8.15083C3.3351 8.0653 2.06349 8.87288 2.11624 10.1751C0.840357 10.4175 0.601575 11.7533 1.32505 12.4646C2.04853 13.176 3.10915 12.8973 3.47053 12.0476C4.75782 12.2928 5.89471 11.3705 5.94674 10.3063C7.14921 10.3063 7.67524 9.83087 7.87197 8.72534L8.32601 8.76241C8.46001 9.95276 7.90903 11.0825 6.4742 10.9478C6.43713 12.3691 5.0579 13.1639 3.77132 12.6727C3.17045 13.8011 1.79406 14.2523 0.638639 13.151C-0.47758 12.0875 -0.0698674 10.2664 1.3892 9.82517C1.4227 8.43167 2.45196 7.10803 4.45132 7.61838C4.45132 7.61838 4.70863 6.99612 5.33446 6.95905C4.91748 6.78798 4.60172 6.55776 4.51547 6.12866C3.00722 6.45013 1.72635 5.06162 2.0692 3.66385C0.708492 2.9475 0.686396 1.60318 1.3614 0.804148C2.06492 -0.0276729 3.23674 -0.211572 4.28524 0.685113C6.06078 -0.298531 8.06798 0.906073 7.94538 2.92896C9.18705 2.84628 9.94118 3.93185 9.8029 5.06233C10.0075 4.56409 10.247 4.33315 10.706 4.23336L11.3211 4.50137Z" fill="#2D2D2D"/>
</svg>
